<svg xmlns="http://www.w3.org/2000/svg" viewBox="0 0 1024 1024"><path d="M870.4 915.2H153.6c-37.1 0-67.2-30.1-67.2-67.2V310.4c0-37.1 30.1-67.2 67.2-67.2h716.8c37.1 0 67.2 30.1 67.2 67.2V848c0 37.1-30.1 67.2-67.2 67.2zM176 825.6h672V332.8H176v492.8zM332.8 332.8c-24.7 0-44.8-20.1-44.8-44.8V153.6c0-24.7 20.1-44.8 44.8-44.8s44.8 20.1 44.8 44.8V288c0 24.7-20.1 44.8-44.8 44.8zM691.2 332.8c-24.7 0-44.8-20.1-44.8-44.8V153.6c0-24.7 20.1-44.8 44.8-44.8s44.8 20.1 44.8 44.8V288c0 24.7-20.1 44.8-44.8 44.8z" fill="#1A1A1A"/></svg>
